<svg width="209" height="44" viewBox="0 0 209 44" fill="none" xmlns="http://www.w3.org/2000/svg">
<path fill-rule="evenodd" clip-rule="evenodd" d="M0.12458 17.3041C0.12458 8.11208 7.66413 0.628021 16.6343 0.628021C21.5933 0.628021 25.1218 2.62354 27.7844 5.22226L24.6495 8.43473C22.7467 6.60404 20.1662 5.18369 16.6308 5.18369C10.0804 5.18369 4.96044 10.5881 4.96044 17.3006C4.96044 24.0131 10.0803 29.4244 16.6274 29.4244C20.8746 29.4244 23.2908 27.6779 24.8412 26.0857C26.1109 24.7846 26.9425 22.9154 27.2642 20.3517H16.6343V15.8066H31.597C31.7544 16.6202 31.8366 17.5952 31.8366 18.6508C31.8366 22.0631 30.9228 26.2962 27.9829 29.3087C25.1218 32.3599 21.4735 33.9871 16.6308 33.9871C7.65729 33.9871 0.117737 26.5101 0.117737 17.3111L0.12458 17.3041ZM43.9313 12.5064C38.1372 12.5064 33.4075 17.0235 33.4075 23.2415C33.4075 29.428 38.1338 33.9766 43.9313 33.9766C49.7289 33.9766 54.4484 29.4209 54.4484 23.238C54.4484 17.02 49.7255 12.5029 43.9313 12.5064V12.5064ZM43.9313 29.7541C40.7588 29.7541 38.0174 27.0712 38.0174 23.245C38.0174 19.3802 40.7554 16.7359 43.9313 16.7359C47.1039 16.7359 49.8418 19.3767 49.8418 23.245C49.8418 27.0677 47.1073 29.7541 43.9313 29.7541ZM66.8786 12.5064C61.0844 12.5064 56.3615 17.0235 56.3615 23.2415C56.3615 29.428 61.0844 33.9766 66.8786 33.9766C72.6727 33.9766 77.3956 29.4209 77.3956 23.238C77.3956 17.02 72.6761 12.5029 66.8786 12.5064V12.5064ZM66.8786 29.7541C63.706 29.7541 60.9646 27.0712 60.9646 23.245C60.9646 19.3802 63.7026 16.7359 66.8786 16.7359C70.0511 16.7359 72.7925 19.3767 72.7925 23.245C72.7925 27.0677 70.0511 29.7541 66.8786 29.7541ZM95.0415 13.1587V14.9052H94.8841C93.8539 13.6392 91.869 12.5029 89.3706 12.5029C84.1309 12.5029 79.3224 17.2234 79.3224 23.2871C79.3224 29.3017 84.1275 33.9836 89.3706 33.9836C91.869 33.9836 93.8539 32.8473 94.8841 31.5462H95.0415V33.0893C95.0415 37.1961 92.8991 39.395 89.4459 39.395C86.6258 39.395 84.8804 37.3188 84.1651 35.5758L80.1541 37.2838C81.304 40.128 84.3636 43.628 89.4425 43.628C94.8362 43.628 99.4016 40.37 99.4016 32.4405V13.1552L95.0415 13.1587ZM89.7642 29.7541C86.5916 29.7541 83.9256 27.0256 83.9256 23.2871C83.9256 19.5065 86.5882 16.7394 89.7642 16.7394C92.8991 16.7394 95.3598 19.503 95.3598 23.2871C95.3632 27.0256 92.9025 29.7541 89.7642 29.7541ZM102.581 1.76781H107.188V33.3313H102.581V1.76781ZM119.813 29.7541C117.472 29.7541 115.802 28.6529 114.737 26.5031L128.749 20.5586L128.266 19.3382C127.397 16.9428 124.734 12.5064 119.296 12.5064C113.899 12.5064 109.412 16.8587 109.412 23.245C109.412 29.2596 113.858 33.9801 119.813 33.9801C124.618 33.9801 127.397 30.9746 128.547 29.221L124.974 26.7836C123.779 28.5757 122.15 29.7576 119.813 29.7541V29.7541ZM119.454 16.6553C121.278 16.6553 122.825 17.5916 123.341 18.9313L113.971 22.9189C113.854 18.77 117.109 16.6553 119.454 16.6553V16.6553Z" fill="#808285"/>
<path fill-rule="evenodd" clip-rule="evenodd" d="M148.961 1.76783H137.948V33.3313H142.544V21.3758H148.965C154.061 21.3758 159.071 17.5952 159.071 11.57C159.071 5.55545 154.064 1.77133 148.972 1.77133L148.961 1.76783ZM149.081 16.9814H142.544V6.15866H149.081C152.517 6.15866 154.475 9.08004 154.475 11.57C154.475 14.018 152.517 16.9814 149.081 16.9814V16.9814ZM166.2 33.3313V1.76783H161.604V33.3313H166.2ZM186.847 33.2752V21.1759C186.847 15.5716 182.761 12.4468 177.487 12.4468C174.164 12.4468 170.718 13.9513 169.291 17.2795L173.37 19.0225C174.243 17.2795 175.865 16.7079 177.573 16.7079C179.948 16.7079 182.364 18.1703 182.402 20.7726V21.0987C181.57 20.6112 179.79 19.8783 177.607 19.8783C173.209 19.8783 168.733 22.3542 168.733 26.9836C168.733 31.2096 172.34 33.9275 176.382 33.9275C179.476 33.9275 181.177 32.5072 182.244 30.8448H182.402V33.2822H186.844L186.847 33.2752ZM176.94 29.7471C175.434 29.7471 173.332 28.9756 173.332 27.0712C173.332 24.6338 175.951 23.6939 178.209 23.6939C180.232 23.6939 181.18 24.1393 182.412 24.7496C182.06 27.5833 179.722 29.712 176.94 29.7471V29.7471ZM203.012 13.1377L197.741 26.8187H197.584L192.115 13.1377H187.162L195.362 32.2652L190.684 42.9021H195.479L208.118 13.1377H203.012Z" fill="#808285"/>
</svg>
