<?xml version="1.0" encoding="UTF-8"?>
<svg xmlns="http://www.w3.org/2000/svg" xmlns:xlink="http://www.w3.org/1999/xlink" width="208px" height="43px" viewBox="0 0 208 43" version="1.1">
<defs>
<linearGradient id="linear0" gradientUnits="userSpaceOnUse" x1="2891.046" y1="1504.53" x2="2784.353" y2="1449.456" gradientTransform="matrix(0.228869,0,0,-0.137492,-620.471207,223.264439)">
<stop offset="0" style="stop-color:rgb(0%,62.745098%,100%);stop-opacity:1;"/>
<stop offset="0.007" style="stop-color:rgb(0%,63.137255%,100%);stop-opacity:1;"/>
<stop offset="0.26" style="stop-color:rgb(0%,74.509804%,100%);stop-opacity:1;"/>
<stop offset="0.512" style="stop-color:rgb(0%,82.352941%,100%);stop-opacity:1;"/>
<stop offset="0.76" style="stop-color:rgb(0%,87.45098%,100%);stop-opacity:1;"/>
<stop offset="1" style="stop-color:rgb(0%,89.019608%,100%);stop-opacity:1;"/>
</linearGradient>
<linearGradient id="linear1" gradientUnits="userSpaceOnUse" x1="2935.234" y1="1422.774" x2="2739.434" y2="1422.774" gradientTransform="matrix(0.179812,0,0,-0.0469485,-469.077455,88.296381)">
<stop offset="0" style="stop-color:rgb(100%,87.843137%,0%);stop-opacity:1;"/>
<stop offset="0.409" style="stop-color:rgb(100%,74.117647%,0%);stop-opacity:1;"/>
<stop offset="0.775" style="stop-color:rgb(100%,64.705882%,0%);stop-opacity:1;"/>
<stop offset="1" style="stop-color:rgb(100%,61.176471%,0%);stop-opacity:1;"/>
</linearGradient>
<linearGradient id="linear2" gradientUnits="userSpaceOnUse" x1="2948.769" y1="1431.331" x2="2836.642" y2="1285.867" gradientTransform="matrix(0.295328,0,0,-0.0705904,-825.247848,123.573776)">
<stop offset="0" style="stop-color:rgb(100%,22.745098%,26.666667%);stop-opacity:1;"/>
<stop offset="1" style="stop-color:rgb(76.470588%,6.666667%,38.431373%);stop-opacity:1;"/>
</linearGradient>
<linearGradient id="linear3" gradientUnits="userSpaceOnUse" x1="2862.393" y1="1571.747" x2="2912.461" y2="1506.756" gradientTransform="matrix(0.295328,0,0,-0.0705538,-825.247848,123.448503)">
<stop offset="0" style="stop-color:rgb(19.607843%,62.745098%,44.313725%);stop-opacity:1;"/>
<stop offset="0.069" style="stop-color:rgb(17.647059%,65.490196%,44.313725%);stop-opacity:1;"/>
<stop offset="0.476" style="stop-color:rgb(8.235294%,81.176471%,45.490196%);stop-opacity:1;"/>
<stop offset="0.801" style="stop-color:rgb(2.352941%,90.588235%,45.882353%);stop-opacity:1;"/>
<stop offset="1" style="stop-color:rgb(0%,94.117647%,46.27451%);stop-opacity:1;"/>
</linearGradient>
<filter id="alpha" filterUnits="objectBoundingBox" x="0%" y="0%" width="100%" height="100%">
  <feColorMatrix type="matrix" in="SourceGraphic" values="0 0 0 0 1 0 0 0 0 1 0 0 0 0 1 0 0 0 1 0"/>
</filter>
<mask id="mask0">
  <g filter="url(#alpha)">
<rect x="0" y="0" width="208" height="43" style="fill:rgb(0%,0%,0%);fill-opacity:0.2;stroke:none;"/>
  </g>
</mask>
<clipPath id="clip1">
  <rect x="0" y="0" width="208" height="43"/>
</clipPath>
<g id="surface5" clip-path="url(#clip1)">
<path style=" stroke:none;fill-rule:evenodd;fill:rgb(0%,0%,0%);fill-opacity:1;" d="M 48.816406 23.363281 L 27.703125 27.085938 C 26.523438 27.292969 25.472656 27.28125 24.792969 27.089844 L 24.679688 27.125 L 24.792969 27.152344 C 25.472656 27.34375 26.523438 27.359375 27.703125 27.148438 L 48.960938 23.40625 Z M 48.816406 23.363281 "/>
</g>
<mask id="mask1">
  <g filter="url(#alpha)">
<rect x="0" y="0" width="208" height="43" style="fill:rgb(0%,0%,0%);fill-opacity:0.121569;stroke:none;"/>
  </g>
</mask>
<clipPath id="clip2">
  <rect x="0" y="0" width="208" height="43"/>
</clipPath>
<g id="surface8" clip-path="url(#clip2)">
<path style=" stroke:none;fill-rule:evenodd;fill:rgb(0%,0%,0%);fill-opacity:1;" d="M 56.058594 22.085938 L 48.800781 23.363281 L 48.929688 23.40625 L 56.042969 22.152344 C 57.0625 21.96875 57.5625 21.734375 57.5625 21.5 C 57.5 21.714844 56.980469 21.921875 56.058594 22.085938 Z M 56.058594 22.085938 "/>
</g>
<mask id="mask2">
  <g filter="url(#alpha)">
<rect x="0" y="0" width="208" height="43" style="fill:rgb(0%,0%,0%);fill-opacity:0.25098;stroke:none;"/>
  </g>
</mask>
<clipPath id="clip3">
  <rect x="0" y="0" width="208" height="43"/>
</clipPath>
<g id="surface11" clip-path="url(#clip3)">
<path style=" stroke:none;fill-rule:evenodd;fill:rgb(100%,100%,100%);fill-opacity:1;" d="M 27.6875 15.914062 L 56.058594 20.914062 C 56.980469 21.074219 57.5 21.285156 57.578125 21.5 C 57.578125 21.265625 57.078125 21.027344 56.058594 20.847656 L 27.6875 15.847656 C 25.648438 15.488281 24 15.789062 24 16.511719 L 24 16.574219 C 24 15.855469 25.648438 15.558594 27.6875 15.914062 Z M 27.6875 15.914062 "/>
</g>
</defs>
<g id="surface1">
<path style=" stroke:none;fill-rule:evenodd;fill:url(#linear0);" d="M 24.664062 15.875 C 24.242188 16.015625 24 16.230469 24 16.511719 L 24 26.488281 C 24 26.769531 24.242188 26.984375 24.679688 27.117188 L 24.792969 27.148438 L 42.820312 21.558594 L 42.820312 21.433594 L 24.777344 15.84375 Z M 24.664062 15.875 "/>
<path style=" stroke:none;fill-rule:evenodd;fill:url(#linear1);" d="M 48.816406 23.429688 L 42.804688 21.5625 L 42.804688 21.433594 L 48.816406 19.570312 L 48.949219 19.59375 L 56.0625 20.847656 C 58.097656 21.203125 58.097656 21.789062 56.0625 22.152344 L 48.949219 23.40625 C 48.945312 23.40625 48.816406 23.429688 48.816406 23.429688 Z M 48.816406 23.429688 "/>
<path style=" stroke:none;fill-rule:evenodd;fill:url(#linear2);" d="M 48.945312 23.40625 L 42.804688 21.5 L 24.664062 27.125 C 25.324219 27.34375 26.441406 27.371094 27.6875 27.152344 L 48.945312 23.40625 "/>
<path style=" stroke:none;fill-rule:evenodd;fill:url(#linear3);" d="M 48.945312 19.59375 L 27.6875 15.847656 C 26.441406 15.628906 25.324219 15.660156 24.664062 15.878906 L 42.800781 21.5 Z M 48.945312 19.59375 "/>
<use xlink:href="#surface5" mask="url(#mask0)"/>
<use xlink:href="#surface8" mask="url(#mask1)"/>
<use xlink:href="#surface11" mask="url(#mask2)"/>
<path style=" stroke:none;fill-rule:evenodd;fill:rgb(50.196078%,50.980392%,52.156863%);fill-opacity:1;" d="M 64.503906 21.183594 C 64.503906 19.585938 68.835938 18.285156 73.988281 18.285156 C 76.839844 18.285156 78.867188 18.628906 80.394531 19.082031 L 78.59375 19.640625 C 77.5 19.324219 76.019531 19.074219 73.988281 19.074219 C 70.222656 19.074219 67.28125 20.015625 67.28125 21.183594 C 67.28125 22.347656 70.222656 23.289062 73.984375 23.289062 C 76.425781 23.289062 77.8125 22.984375 78.703125 22.710938 C 79.433594 22.484375 79.910156 22.15625 80.097656 21.710938 L 73.988281 21.710938 L 73.988281 20.921875 L 82.585938 20.921875 C 82.675781 21.0625 82.722656 21.234375 82.722656 21.417969 C 82.722656 22.011719 82.199219 22.746094 80.507812 23.269531 C 78.867188 23.800781 76.769531 24.082031 73.988281 24.082031 C 68.832031 24.082031 64.5 22.78125 64.5 21.183594 Z M 89.671875 20.347656 C 86.34375 20.347656 83.625 21.132812 83.625 22.214844 C 83.625 23.289062 86.339844 24.082031 89.671875 24.082031 C 93.003906 24.082031 95.714844 23.289062 95.714844 22.214844 C 95.714844 21.132812 93 20.347656 89.671875 20.347656 Z M 89.671875 23.347656 C 87.847656 23.347656 86.273438 22.878906 86.273438 22.214844 C 86.273438 21.542969 87.847656 21.082031 89.671875 21.082031 C 91.496094 21.082031 93.066406 21.542969 93.066406 22.214844 C 93.066406 22.878906 91.496094 23.347656 89.671875 23.347656 Z M 102.855469 20.347656 C 99.527344 20.347656 96.8125 21.132812 96.8125 22.214844 C 96.8125 23.289062 99.527344 24.082031 102.855469 24.082031 C 106.183594 24.082031 108.898438 23.289062 108.898438 22.214844 C 108.898438 21.132812 106.1875 20.347656 102.855469 20.347656 Z M 102.855469 23.347656 C 101.03125 23.347656 99.457031 22.878906 99.457031 22.214844 C 99.457031 21.542969 101.03125 21.082031 102.855469 21.082031 C 104.679688 21.082031 106.253906 21.542969 106.253906 22.214844 C 106.253906 22.878906 104.679688 23.347656 102.855469 23.347656 Z M 119.035156 20.460938 L 119.035156 20.765625 L 118.945312 20.765625 C 118.351562 20.546875 117.214844 20.347656 115.777344 20.347656 C 112.765625 20.347656 110.003906 21.167969 110.003906 22.222656 C 110.003906 23.269531 112.765625 24.082031 115.777344 24.082031 C 117.214844 24.082031 118.351562 23.886719 118.945312 23.660156 L 119.035156 23.660156 L 119.035156 23.925781 C 119.035156 24.640625 117.804688 25.023438 115.820312 25.023438 C 114.199219 25.023438 113.199219 24.664062 112.785156 24.359375 L 110.484375 24.65625 C 111.144531 25.152344 112.902344 25.757812 115.820312 25.757812 C 118.917969 25.757812 121.539062 25.191406 121.539062 23.8125 L 121.539062 20.460938 Z M 116.003906 23.347656 C 114.179688 23.347656 112.648438 22.871094 112.648438 22.222656 C 112.648438 21.566406 114.179688 21.085938 116.003906 21.085938 C 117.804688 21.085938 119.21875 21.566406 119.21875 22.222656 C 119.21875 22.871094 117.808594 23.347656 116.003906 23.347656 Z M 123.367188 18.480469 L 126.015625 18.480469 L 126.015625 23.96875 L 123.367188 23.96875 Z M 133.265625 23.347656 C 131.921875 23.347656 130.964844 23.15625 130.351562 22.78125 L 138.402344 21.75 L 138.125 21.535156 C 137.625 21.121094 136.09375 20.347656 132.96875 20.347656 C 129.871094 20.347656 127.292969 21.105469 127.292969 22.214844 C 127.292969 23.261719 129.847656 24.082031 133.265625 24.082031 C 136.027344 24.082031 137.625 23.558594 138.285156 23.253906 L 136.230469 22.832031 C 135.546875 23.140625 134.609375 23.347656 133.265625 23.347656 Z M 133.0625 21.070312 C 134.109375 21.070312 134.996094 21.234375 135.292969 21.464844 L 129.910156 22.160156 C 129.84375 21.4375 131.714844 21.070312 133.0625 21.070312 Z M 133.0625 21.070312 "/>
<path style=" stroke:none;fill-rule:evenodd;fill:rgb(50.196078%,50.980392%,52.156863%);fill-opacity:1;" d="M 150.015625 18.480469 L 143.6875 18.480469 L 143.6875 23.96875 L 146.328125 23.96875 L 146.328125 21.890625 L 150.015625 21.890625 C 152.945312 21.890625 155.820312 21.234375 155.820312 20.1875 C 155.820312 19.140625 152.945312 18.480469 150.019531 18.480469 Z M 150.082031 21.125 L 146.328125 21.125 L 146.328125 19.246094 L 150.082031 19.246094 C 152.054688 19.246094 153.179688 19.753906 153.179688 20.1875 C 153.179688 20.609375 152.054688 21.125 150.082031 21.125 Z M 159.917969 23.96875 L 159.917969 18.480469 L 157.277344 18.480469 L 157.277344 23.96875 Z M 171.78125 23.960938 L 171.78125 21.855469 C 171.78125 20.882812 169.433594 20.339844 166.402344 20.339844 C 164.492188 20.339844 162.511719 20.601562 161.691406 21.179688 L 164.035156 21.480469 C 164.539062 21.179688 165.46875 21.078125 166.453125 21.078125 C 167.816406 21.078125 169.203125 21.332031 169.226562 21.785156 L 169.226562 21.84375 C 168.746094 21.757812 167.726562 21.628906 166.472656 21.628906 C 163.945312 21.628906 161.371094 22.0625 161.371094 22.867188 C 161.371094 23.601562 163.445312 24.074219 165.765625 24.074219 C 167.542969 24.074219 168.523438 23.824219 169.136719 23.535156 L 169.226562 23.535156 L 169.226562 23.960938 Z M 166.085938 23.347656 C 165.222656 23.347656 164.015625 23.210938 164.015625 22.878906 C 164.015625 22.457031 165.519531 22.292969 166.816406 22.292969 C 167.980469 22.292969 168.523438 22.371094 169.230469 22.476562 C 169.027344 22.96875 167.6875 23.339844 166.085938 23.347656 Z M 181.066406 20.457031 L 178.039062 22.835938 L 177.949219 22.835938 L 174.804688 20.457031 L 171.960938 20.457031 L 176.671875 23.785156 L 173.984375 25.632812 L 176.738281 25.632812 L 184 20.457031 Z M 181.066406 20.457031 "/>
</g>
</svg>
