<svg width="208" height="43" viewBox="0 0 208 43" fill="none" xmlns="http://www.w3.org/2000/svg">
<g clip-path="url(#clip0_3_126)">
<path fill-rule="evenodd" clip-rule="evenodd" d="M26.1916 18.8043C26.1916 10.4444 31.8326 3.63789 38.5439 3.63789C42.2542 3.63789 44.8942 5.45276 46.8863 7.81623L44.5408 10.7379C43.1171 9.07292 41.1864 7.78115 38.5414 7.78115C33.6404 7.78115 29.8097 12.6963 29.8097 18.8011C29.8097 24.906 33.6404 29.8275 38.5388 29.8275C41.7165 29.8275 43.5243 28.239 44.6842 26.791C45.6342 25.6077 46.2564 23.9076 46.4971 21.576H38.5439V17.4424H49.7388C49.8566 18.1823 49.9181 19.069 49.9181 20.0291C49.9181 23.1325 49.2344 26.9824 47.0348 29.7222C44.8942 32.4971 42.1646 33.9771 38.5414 33.9771C31.8275 33.9771 26.1865 27.1769 26.1865 18.8107L26.1916 18.8043ZM58.9672 14.441C54.6321 14.441 51.0934 18.5491 51.0934 24.2042C51.0934 29.8306 54.6296 33.9675 58.9672 33.9675C63.3049 33.9675 66.8359 29.8243 66.8359 24.2011C66.8359 18.5459 63.3023 14.4378 58.9672 14.441V14.441ZM58.9672 30.1273C56.5935 30.1273 54.5425 27.6873 54.5425 24.2074C54.5425 20.6925 56.591 18.2876 58.9672 18.2876C61.3409 18.2876 63.3894 20.6893 63.3894 24.2074C63.3894 27.6841 61.3434 30.1273 58.9672 30.1273ZM76.136 14.441C71.8009 14.441 68.2673 18.5491 68.2673 24.2042C68.2673 29.8306 71.8009 33.9675 76.136 33.9675C80.4711 33.9675 84.0047 29.8243 84.0047 24.2011C84.0047 18.5459 80.4736 14.4378 76.136 14.441V14.441ZM76.136 30.1273C73.7623 30.1273 71.7113 27.6873 71.7113 24.2074C71.7113 20.6925 73.7598 18.2876 76.136 18.2876C78.5097 18.2876 80.5607 20.6893 80.5607 24.2074C80.5607 27.6841 78.5097 30.1273 76.136 30.1273ZM97.2071 15.0342V16.6226H97.0893C96.3186 15.4712 94.8334 14.4378 92.9642 14.4378C89.0439 14.4378 85.4463 18.7309 85.4463 24.2457C85.4463 29.7158 89.0414 33.9739 92.9642 33.9739C94.8334 33.9739 96.3186 32.9405 97.0893 31.7571H97.2071V33.1606C97.2071 36.8955 95.6042 38.8954 93.0205 38.8954C90.9106 38.8954 89.6047 37.0072 89.0695 35.422L86.0685 36.9753C86.9289 39.562 89.2181 42.7452 93.018 42.7452C97.0535 42.7452 100.469 39.7821 100.469 32.5705V15.031L97.2071 15.0342ZM93.2587 30.1273C90.885 30.1273 88.8903 27.6458 88.8903 24.2457C88.8903 20.8074 90.8824 18.2908 93.2587 18.2908C95.6042 18.2908 97.4452 20.8042 97.4452 24.2457C97.4478 27.6458 95.6067 30.1273 93.2587 30.1273ZM102.848 4.6745H106.295V33.3806H102.848V4.6745ZM115.741 30.1273C113.989 30.1273 112.74 29.1258 111.943 27.1705L122.426 21.7642L122.065 20.6543C121.415 18.4758 119.423 14.441 115.354 14.441C111.316 14.441 107.959 18.3992 107.959 24.2074C107.959 29.6775 111.285 33.9707 115.741 33.9707C119.336 33.9707 121.415 31.2372 122.275 29.6425L119.602 27.4257C118.708 29.0556 117.49 30.1305 115.741 30.1273V30.1273ZM115.472 18.2142C116.837 18.2142 117.994 19.0658 118.381 20.2843L111.37 23.9108C111.283 20.1375 113.718 18.2142 115.472 18.2142V18.2142Z" fill="white"/>
<path fill-rule="evenodd" clip-rule="evenodd" d="M137.549 4.67451H129.309V33.3807H132.748V22.5074H137.552C141.365 22.5074 145.113 19.069 145.113 13.5894C145.113 8.11925 141.367 4.6777 137.557 4.6777L137.549 4.67451ZM137.639 18.5109H132.748V8.66786H137.639C140.21 8.66786 141.674 11.3248 141.674 13.5894C141.674 15.8157 140.21 18.5109 137.639 18.5109V18.5109ZM150.447 33.3807V4.67451H147.008V33.3807H150.447ZM165.895 33.3296V22.3256C165.895 17.2287 162.838 14.3868 158.892 14.3868C156.405 14.3868 153.827 15.7551 152.759 18.782L155.811 20.3672C156.464 18.782 157.678 18.2621 158.956 18.2621C160.733 18.2621 162.541 19.5921 162.569 21.9588V22.2554C161.947 21.8121 160.615 21.1455 158.981 21.1455C155.691 21.1455 152.342 23.3973 152.342 27.6075C152.342 31.451 155.041 33.9229 158.065 33.9229C160.38 33.9229 161.652 32.6311 162.451 31.1192H162.569V33.336H165.892L165.895 33.3296ZM158.482 30.1209C157.355 30.1209 155.783 29.4192 155.783 27.6873C155.783 25.4705 157.742 24.6157 159.432 24.6157C160.945 24.6157 161.655 25.0208 162.576 25.5758C162.313 28.1529 160.564 30.089 158.482 30.1209V30.1209ZM177.989 15.0151L174.045 27.4576H173.928L169.836 15.0151H166.131L172.266 32.411L168.765 42.085H172.353L181.809 15.0151H177.989Z" fill="white"/>
<path opacity="0.5" d="M196.89 7.13736C196.916 2.37716 193.124 2.50369 193.124 2.50369C193.124 2.50369 192.84 6.94672 196.89 7.13736Z" fill="white"/>
<path opacity="0.5" d="M200.342 4.38421C200.342 4.38421 197.071 6.96238 198.969 10.9849C202.333 7.957 200.342 4.38421 200.342 4.38421Z" fill="white"/>
<path opacity="0.5" d="M200.348 16.496C204.005 14.0809 202.534 10.1787 202.534 10.1787C202.534 10.1787 199.027 12.1634 200.348 16.496Z" fill="white"/>
<path opacity="0.5" d="M200.16 21.9308C204.137 20.8287 203.744 16.5971 203.744 16.5971C203.744 16.5971 200.012 17.3354 200.16 21.9308Z" fill="white"/>
<path opacity="0.5" d="M198.864 27.6097C202.847 27.7505 203.465 23.5345 203.465 23.5345C203.465 23.5345 199.797 23.1162 198.864 27.6097Z" fill="white"/>
<path opacity="0.5" d="M196.016 32.1397C199.609 33.771 201.416 29.9482 201.416 29.9482C201.416 29.9482 198.192 28.1686 196.016 32.1397Z" fill="white"/>
<path opacity="0.5" d="M192.702 36.0868C195.881 38.5124 198.291 35.0925 198.291 35.0925C198.291 35.0925 195.494 32.5997 192.702 36.0868Z" fill="white"/>
<path opacity="0.5" d="M189.334 38.2343C191.753 41.6257 194.841 38.9472 194.841 38.9472C194.841 38.9472 192.797 35.6053 189.334 38.2343Z" fill="white"/>
<path opacity="0.5" d="M198.145 11.1102C197.097 6.69069 193.416 7.97118 193.416 7.97118C193.416 7.97118 194.142 12.1763 198.145 11.1102Z" fill="white"/>
<path opacity="0.5" d="M195.139 12.4275C195.139 12.4275 195.198 16.8296 199.264 16.5913C198.924 11.9038 195.139 12.4275 195.139 12.4275Z" fill="white"/>
<path opacity="0.5" d="M199.062 21.8279C199.558 17.038 195.802 16.6522 195.802 16.6522C195.802 16.6522 195.084 21.088 199.062 21.8279Z" fill="white"/>
<path opacity="0.5" d="M197.734 27.0523C199.179 22.4184 195.665 20.992 195.665 20.992C195.665 20.992 194.079 25.211 197.734 27.0523Z" fill="white"/>
<path opacity="0.5" d="M194.569 24.6711C194.569 24.6711 192.272 28.4725 195.44 31.2228C197.677 26.9725 194.569 24.6711 194.569 24.6711Z" fill="white"/>
<path opacity="0.5" d="M192.365 27.5894C192.365 27.5894 189.552 30.8827 192.175 34.304C195.001 30.5512 192.365 27.5894 192.365 27.5894Z" fill="white"/>
<path opacity="0.5" d="M190.093 30.3945C190.093 30.3945 186.831 32.9862 188.744 37.0001C192.098 33.9567 190.093 30.3945 190.093 30.3945Z" fill="white"/>
<path opacity="0.5" d="M13.848 5.72136C13.848 5.72136 11.0056 5.2612 11.2612 9.91695C14.2799 10.0903 13.848 5.72136 13.848 5.72136Z" fill="white"/>
<path opacity="0.5" d="M10.0079 13.9707C11.2279 10.2064 8.65475 7.39646 8.65475 7.39646C8.65475 7.39646 7.34271 10.7124 10.0079 13.9707Z" fill="white"/>
<path opacity="0.5" d="M9.05355 19.4932C9.81177 15.4083 7.1341 13.1802 7.1341 13.1802C7.1341 13.1802 6.24446 16.8343 9.05355 19.4932Z" fill="white"/>
<path opacity="0.5" d="M9.14558 24.9316C9.02812 20.6019 6.33264 19.5939 6.33264 19.5939C6.33264 19.5939 6.25775 23.5591 9.14558 24.9316Z" fill="white"/>
<path opacity="0.5" d="M9.99634 30.6423C9.12747 26.4129 6.57359 26.5007 6.57359 26.5007C6.57359 26.5007 7.20812 30.4477 9.99634 30.6423Z" fill="white"/>
<path opacity="0.5" d="M8.04812 32.8247C8.04812 32.8247 9.48863 36.4597 11.9174 35.2615C10.2121 31.4612 8.04812 32.8247 8.04812 32.8247Z" fill="white"/>
<path opacity="0.5" d="M14.1897 39.2696C12.0753 35.853 10.2403 37.9072 10.2403 37.9072C10.2403 37.9072 12.0854 41.2316 14.1897 39.2696Z" fill="white"/>
<path opacity="0.5" d="M12.6583 41.6954C12.6583 41.6954 14.9592 44.4355 16.4987 41.4837C13.9363 38.7595 12.6583 41.6954 12.6583 41.6954Z" fill="white"/>
<path opacity="0.5" d="M13.6574 11.2335C13.6574 11.2335 10.923 9.68944 10.3792 13.8462C13.3368 15.2116 13.6574 11.2335 13.6574 11.2335Z" fill="white"/>
<path opacity="0.5" d="M12.458 15.6632C12.458 15.6632 9.62772 14.8219 9.60748 19.3535C12.6323 19.9419 12.458 15.6632 12.458 15.6632Z" fill="white"/>
<path opacity="0.5" d="M11.9756 19.8449C11.9756 19.8449 9.1575 19.886 9.76985 24.6336C12.7388 24.2649 11.9756 19.8449 11.9756 19.8449Z" fill="white"/>
<path opacity="0.5" d="M10.7403 29.9168C13.4463 28.434 12.0218 24.1261 12.0218 24.1261C12.0218 24.1261 9.40346 25.2125 10.7403 29.9168Z" fill="white"/>
<path opacity="0.5" d="M12.7268 27.7523C12.7268 27.7523 10.4599 29.7401 12.385 34.1395C14.6755 31.7147 12.7268 27.7523 12.7268 27.7523Z" fill="white"/>
<path opacity="0.5" d="M14.6907 37.2591C16.5156 34.1284 14.2127 30.6319 14.2127 30.6319C14.2127 30.6319 12.3553 33.3087 14.6907 37.2591Z" fill="white"/>
<path opacity="0.5" d="M15.7606 33.4071C15.7606 33.4071 14.4372 36.7115 17.0974 39.9854C18.3293 36.2307 15.7606 33.4071 15.7606 33.4071Z" fill="white"/>
</g>
<defs>
<clipPath id="clip0_3_126">
<rect width="208" height="43" fill="white"/>
</clipPath>
</defs>
</svg>
