<svg width="43" height="13" viewBox="0 0 43 13" fill="none" xmlns="http://www.w3.org/2000/svg">
<path d="M41.4074 12.8706H1.59259C0.700741 12.8706 0 12.1699 0 11.278V1.72248C0 0.830624 0.700741 0.129883 1.59259 0.129883H41.4074C42.2993 0.129883 43 0.830624 43 1.72248V11.278C43 12.1699 42.2993 12.8706 41.4074 12.8706Z" fill="white"/>
<path d="M41.4074 0.384698C42.14 0.384698 42.7452 0.989883 42.7452 1.72248V11.278C42.7452 12.0106 42.14 12.6158 41.4074 12.6158H1.59259C0.86 12.6158 0.254815 12.0106 0.254815 11.278V1.72248C0.254815 0.989883 0.86 0.384698 1.59259 0.384698H41.4074ZM41.4074 0.129883H1.59259C0.700741 0.129883 0 0.862475 0 1.72248V11.278C0 12.1699 0.700741 12.8706 1.59259 12.8706H41.4074C42.2993 12.8706 43 12.1699 43 11.278V1.72248C43 0.862475 42.2993 0.129883 41.4074 0.129883Z" fill="#A6A6A6"/>
<path d="M15.0976 3.37826C15.0976 3.63307 15.0339 3.85604 14.8747 4.0153C14.6836 4.20641 14.4606 4.30196 14.1739 4.30196C13.8873 4.30196 13.6643 4.20641 13.4732 4.0153C13.2821 3.82419 13.1865 3.60122 13.1865 3.31456C13.1865 3.02789 13.2821 2.80493 13.4732 2.61382C13.6643 2.4227 13.8873 2.32715 14.1739 2.32715C14.3013 2.32715 14.4287 2.359 14.5562 2.4227C14.6836 2.48641 14.7791 2.55011 14.8428 2.64567L14.6836 2.80493C14.5562 2.64567 14.3969 2.58196 14.1739 2.58196C13.9828 2.58196 13.7917 2.64567 13.6643 2.80493C13.505 2.93233 13.4413 3.12344 13.4413 3.34641C13.4413 3.56937 13.505 3.76048 13.6643 3.88789C13.8236 4.0153 13.9828 4.11085 14.1739 4.11085C14.3969 4.11085 14.5562 4.04715 14.7154 3.88789C14.811 3.79233 14.8747 3.66493 14.8747 3.50567H14.1739V3.25085H15.0976V3.37826V3.37826ZM16.5628 2.58196H15.7028V3.18715H16.4991V3.41011H15.7028V4.0153H16.5628V4.27011H15.448V2.359H16.5628V2.58196ZM17.6139 4.27011H17.3591V2.58196H16.8176V2.359H18.1554V2.58196H17.6139V4.27011ZM19.0791 4.27011V2.359H19.3339V4.27011H19.0791ZM20.4169 4.27011H20.1621V2.58196H19.6206V2.359H20.9265V2.58196H20.385V4.27011H20.4169ZM23.4428 4.0153C23.2517 4.20641 23.0287 4.30196 22.7421 4.30196C22.4554 4.30196 22.2324 4.20641 22.0413 4.0153C21.8502 3.82419 21.7547 3.60122 21.7547 3.31456C21.7547 3.02789 21.8502 2.80493 22.0413 2.61382C22.2324 2.4227 22.4554 2.32715 22.7421 2.32715C23.0287 2.32715 23.2517 2.4227 23.4428 2.61382C23.6339 2.80493 23.7295 3.02789 23.7295 3.31456C23.7295 3.60122 23.6339 3.82419 23.4428 4.0153ZM22.2324 3.85604C22.3599 3.98344 22.551 4.079 22.7421 4.079C22.9332 4.079 23.1243 4.0153 23.2517 3.85604C23.3791 3.72863 23.4747 3.53752 23.4747 3.31456C23.4747 3.09159 23.411 2.90048 23.2517 2.77307C23.1243 2.64567 22.9332 2.55011 22.7421 2.55011C22.551 2.55011 22.3599 2.61382 22.2324 2.77307C22.105 2.90048 22.0095 3.09159 22.0095 3.31456C22.0095 3.53752 22.0732 3.72863 22.2324 3.85604ZM24.0799 4.27011V2.359H24.3665L25.2902 3.85604V2.359H25.545V4.27011H25.2902L24.3028 2.70937V4.27011H24.0799V4.27011Z" fill="black" stroke="white" stroke-width="0.0637037" stroke-miterlimit="10"/>
<path d="M21.6908 7.07321C20.9264 7.07321 20.3212 7.64654 20.3212 8.44284C20.3212 9.20728 20.9264 9.81247 21.6908 9.81247C22.4553 9.81247 23.0605 9.23913 23.0605 8.44284C23.0605 7.61469 22.4553 7.07321 21.6908 7.07321ZM21.6908 9.23913C21.2767 9.23913 20.9264 8.88876 20.9264 8.41099C20.9264 7.93321 21.2767 7.58284 21.6908 7.58284C22.1049 7.58284 22.4553 7.90136 22.4553 8.41099C22.4553 8.88876 22.1049 9.23913 21.6908 9.23913ZM18.7286 7.07321C17.9642 7.07321 17.359 7.64654 17.359 8.44284C17.359 9.20728 17.9642 9.81247 18.7286 9.81247C19.493 9.81247 20.0982 9.23913 20.0982 8.44284C20.0982 7.61469 19.493 7.07321 18.7286 7.07321ZM18.7286 9.23913C18.3145 9.23913 17.9642 8.88876 17.9642 8.41099C17.9642 7.93321 18.3145 7.58284 18.7286 7.58284C19.1427 7.58284 19.493 7.90136 19.493 8.41099C19.493 8.88876 19.1427 9.23913 18.7286 9.23913ZM15.193 7.48728V8.06062H16.5627C16.5308 8.37913 16.4034 8.63395 16.2442 8.79321C16.053 8.98432 15.7345 9.20728 15.193 9.20728C14.333 9.20728 13.696 8.53839 13.696 7.67839C13.696 6.81839 14.3649 6.1495 15.193 6.1495C15.639 6.1495 15.9893 6.34062 16.2442 6.56358L16.6582 6.1495C16.3079 5.83099 15.8619 5.57617 15.2249 5.57617C14.0782 5.57617 13.0908 6.53173 13.0908 7.67839C13.0908 8.82506 14.0782 9.78062 15.2249 9.78062C15.8619 9.78062 16.3079 9.5895 16.6901 9.17543C17.0723 8.79321 17.1997 8.25173 17.1997 7.83765C17.1997 7.71025 17.1997 7.58284 17.1679 7.48728H15.193V7.48728ZM29.6538 7.93321C29.5264 7.61469 29.2079 7.07321 28.5071 7.07321C27.8064 7.07321 27.233 7.61469 27.233 8.44284C27.233 9.20728 27.8064 9.81247 28.5708 9.81247C29.176 9.81247 29.5582 9.43025 29.6856 9.20728L29.2397 8.88876C29.0805 9.11173 28.8893 9.27099 28.5708 9.27099C28.2523 9.27099 28.0612 9.14358 27.9019 8.85691L29.7175 8.09247L29.6538 7.93321V7.93321ZM27.8064 8.37913C27.8064 7.8695 28.2205 7.58284 28.5071 7.58284C28.7301 7.58284 28.953 7.71025 29.0167 7.8695L27.8064 8.37913ZM26.3093 9.68506H26.9145V5.70358H26.3093V9.68506ZM25.3538 7.35988C25.1945 7.20062 24.9397 7.04136 24.6212 7.04136C23.9523 7.04136 23.3153 7.64654 23.3153 8.41099C23.3153 9.17543 23.9205 9.74876 24.6212 9.74876C24.9397 9.74876 25.1945 9.58951 25.3219 9.43025H25.3538V9.62136C25.3538 10.131 25.0671 10.4177 24.6212 10.4177C24.2708 10.4177 24.016 10.1628 23.9523 9.93988L23.4427 10.1628C23.6019 10.5132 23.9842 10.9591 24.653 10.9591C25.3538 10.9591 25.9271 10.5451 25.9271 9.55765V7.13691H25.3538V7.35988V7.35988ZM24.653 9.23913C24.239 9.23913 23.8886 8.88876 23.8886 8.41099C23.8886 7.93321 24.239 7.58284 24.653 7.58284C25.0671 7.58284 25.3856 7.93321 25.3856 8.41099C25.3856 8.88876 25.0671 9.23913 24.653 9.23913ZM32.4249 5.70358H30.9916V9.68506H31.5967V8.18802H32.4249C33.0938 8.18802 33.7308 7.71025 33.7308 6.9458C33.7308 6.18136 33.0938 5.70358 32.4249 5.70358V5.70358ZM32.4567 7.61469H31.5967V6.24506H32.4567C32.9027 6.24506 33.1575 6.62728 33.1575 6.91395C33.1256 7.26432 32.8708 7.61469 32.4567 7.61469ZM36.1197 7.04136C35.6738 7.04136 35.2279 7.23247 35.0686 7.64654L35.6101 7.8695C35.7375 7.64654 35.9286 7.58284 36.1516 7.58284C36.4701 7.58284 36.7567 7.77395 36.7886 8.09247V8.12432C36.693 8.06062 36.4382 7.96506 36.1834 7.96506C35.6101 7.96506 35.0367 8.28358 35.0367 8.85691C35.0367 9.39839 35.5145 9.74876 36.0242 9.74876C36.4382 9.74876 36.6293 9.55765 36.7886 9.36654H36.8205V9.68506H37.3938V8.15617C37.3301 7.45543 36.7886 7.04136 36.1197 7.04136V7.04136ZM36.056 9.23913C35.8649 9.23913 35.5782 9.14358 35.5782 8.88876C35.5782 8.57025 35.9286 8.47469 36.2153 8.47469C36.4701 8.47469 36.5975 8.53839 36.7567 8.6021C36.693 8.98432 36.3745 9.23913 36.056 9.23913V9.23913ZM39.4004 7.13691L38.7316 8.85691H38.6997L37.999 7.13691H37.3619L38.413 9.55765L37.8079 10.8954H38.413L40.0375 7.13691H39.4004V7.13691ZM34.0493 9.68506H34.6545V5.70358H34.0493V9.68506Z" fill="black"/>
<path d="M3.31295 2.51855C3.2174 2.61411 3.18555 2.77337 3.18555 2.96448V10.0037C3.18555 10.1949 3.24925 10.3541 3.34481 10.4497L3.37666 10.4815L7.32629 6.53189V6.46818L3.31295 2.51855Z" fill="url(#paint0_linear_130_15)"/>
<path d="M8.60085 7.86952L7.29492 6.56359V6.46804L8.60085 5.16211L8.6327 5.19396L10.1934 6.08581C10.6394 6.34063 10.6394 6.7547 10.1934 7.00952L8.60085 7.86952V7.86952Z" fill="url(#paint1_linear_130_15)"/>
<path d="M8.63176 7.83778L7.29398 6.5L3.3125 10.4815C3.47176 10.6407 3.69472 10.6407 3.98139 10.5133L8.63176 7.83778" fill="url(#paint2_linear_130_15)"/>
<path d="M8.63176 5.16247L3.98139 2.51877C3.69472 2.35951 3.47176 2.39136 3.3125 2.55062L7.29398 6.50025L8.63176 5.16247V5.16247Z" fill="url(#paint3_linear_130_15)"/>
<path opacity="0.2" d="M8.59991 7.80566L3.98139 10.4175C3.72657 10.5768 3.50361 10.5449 3.34435 10.4175L3.3125 10.4494L3.34435 10.4812C3.50361 10.6086 3.72657 10.6405 3.98139 10.4812L8.59991 7.80566Z" fill="black"/>
<path opacity="0.12" d="M3.31295 10.4178C3.2174 10.3222 3.18555 10.163 3.18555 9.97185V10.0037C3.18555 10.1948 3.24925 10.3541 3.34481 10.4496V10.4178H3.31295ZM10.193 6.91407L8.60036 7.80593L8.63221 7.83778L10.193 6.94593C10.4159 6.81852 10.5115 6.65926 10.5115 6.5C10.5115 6.65926 10.3841 6.78667 10.193 6.91407V6.91407Z" fill="black"/>
<path opacity="0.25" d="M3.98184 2.55048L10.193 6.08603C10.3841 6.21344 10.5115 6.34085 10.5115 6.50011C10.5115 6.34085 10.4159 6.18159 10.193 6.05418L3.98184 2.51863C3.53592 2.26381 3.18555 2.45492 3.18555 2.96455V2.9964C3.18555 2.51863 3.53592 2.29566 3.98184 2.55048Z" fill="white"/>
<defs>
<linearGradient id="paint0_linear_130_15" x1="6.94407" y1="2.90396" x2="1.59837" y2="8.24934" gradientUnits="userSpaceOnUse">
<stop stop-color="#00A0FF"/>
<stop offset="0.007" stop-color="#00A1FF"/>
<stop offset="0.26" stop-color="#00BEFF"/>
<stop offset="0.512" stop-color="#00D2FF"/>
<stop offset="0.76" stop-color="#00DFFF"/>
<stop offset="1" stop-color="#00E3FF"/>
</linearGradient>
<linearGradient id="paint1_linear_130_15" x1="10.7776" y1="6.50021" x2="3.07041" y2="6.50021" gradientUnits="userSpaceOnUse">
<stop stop-color="#FFE000"/>
<stop offset="0.409" stop-color="#FFBD00"/>
<stop offset="0.775" stop-color="#FFA500"/>
<stop offset="1" stop-color="#FF9C00"/>
</linearGradient>
<linearGradient id="paint2_linear_130_15" x1="7.90777" y1="7.23132" x2="0.658922" y2="14.4802" gradientUnits="userSpaceOnUse">
<stop stop-color="#FF3A44"/>
<stop offset="1" stop-color="#C31162"/>
</linearGradient>
<linearGradient id="paint3_linear_130_15" x1="2.32414" y1="0.185938" x2="5.56124" y2="3.42304" gradientUnits="userSpaceOnUse">
<stop stop-color="#32A071"/>
<stop offset="0.069" stop-color="#2DA771"/>
<stop offset="0.476" stop-color="#15CF74"/>
<stop offset="0.801" stop-color="#06E775"/>
<stop offset="1" stop-color="#00F076"/>
</linearGradient>
</defs>
</svg>
